<?xml version="1.0" standalone="no"?>
<!DOCTYPE svg PUBLIC "-//W3C//DTD SVG 20010904//EN"
 "http://www.w3.org/TR/2001/REC-SVG-20010904/DTD/svg10.dtd">
<svg version="1.0" xmlns="http://www.w3.org/2000/svg"
 width="1080.000000pt" height="1080.000000pt" viewBox="0 0 1080.000000 1080.000000"
 preserveAspectRatio="xMidYMid meet">
<metadata>
Created by potrace 1.14, written by Peter Selinger 2001-2017
</metadata>
<g transform="translate(0.000000,1080.000000) scale(0.100000,-0.100000)"
fill="#000000" stroke="none">
<path d="M7490 9219 c0 -31 79 -147 160 -234 l55 -60 -65 -7 c-36 -4 -74 -10
-85 -13 -27 -9 -138 -34 -199 -45 -26 -5 -71 -17 -100 -27 -46 -16 -48 -18
-23 -21 16 -2 42 1 59 7 38 14 108 14 108 1 0 -10 -44 -32 -100 -49 -38 -12
-225 -148 -252 -183 -23 -30 -13 -41 22 -23 38 19 110 35 110 24 0 -5 -7 -9
-16 -9 -8 0 -32 -11 -52 -25 -20 -14 -44 -25 -54 -25 -9 0 -23 -6 -30 -13 -7
-8 -41 -29 -75 -48 -61 -34 -90 -35 -61 -2 9 10 30 46 47 80 17 34 35 64 41
68 9 6 15 45 6 45 -2 0 -28 -5 -57 -11 -66 -13 -450 -12 -463 1 -7 7 41 10
131 10 128 0 206 11 190 27 -3 3 -101 6 -216 7 -153 1 -213 4 -223 14 -6 6
-22 12 -35 12 -12 0 -74 20 -136 45 -118 46 -137 51 -137 36 0 -39 256 -272
410 -373 55 -36 59 -52 20 -73 -45 -24 -161 -75 -170 -75 -5 0 -26 -7 -47 -16
-21 -9 -47 -20 -58 -24 -40 -15 -152 -39 -235 -50 -47 -6 -96 -12 -110 -14
-14 -2 -50 0 -80 4 -30 4 -59 4 -64 -1 -11 -10 20 -49 39 -49 7 0 37 -13 67
-29 109 -58 257 -95 420 -103 l46 -3 -50 -75 c-27 -41 -62 -100 -78 -130 -15
-30 -42 -81 -59 -113 -28 -53 -40 -115 -25 -130 3 -3 18 5 33 19 57 54 84 50
61 -10 -15 -40 -31 -166 -25 -188 4 -10 11 -18 17 -18 6 0 52 43 101 95 49 52
95 95 103 95 17 0 17 -2 -1 -46 -19 -45 -28 -183 -34 -526 -1 -21 -5 -25 -20
-21 -24 6 -34 -10 -34 -58 0 -29 -4 -39 -16 -39 -9 0 -21 -8 -28 -19 -8 -13
-19 -17 -37 -14 -14 3 -26 1 -26 -5 0 -12 -70 -24 -84 -14 -12 9 -26 9 -41 1
-9 -5 -32 -5 -37 1 -8 7 -76 5 -72 -2 3 -4 -1 -8 -9 -8 -8 0 -26 -9 -40 -20
-36 -29 -75 -26 -83 5 -7 27 -24 34 -24 10 0 -23 -35 -35 -84 -29 -50 7 -63
24 -18 24 37 1 65 23 49 39 -9 10 -8 15 7 27 11 8 27 14 37 14 9 0 22 6 28 14
19 22 -11 33 -109 38 -89 6 -140 -8 -140 -37 0 -13 55 -35 89 -35 8 0 11 -6 7
-16 -3 -9 -6 -18 -6 -20 0 -2 -7 -4 -15 -4 -16 0 -21 -15 -7 -23 4 -2 1 -2 -5
-1 -7 2 -17 -4 -22 -13 -5 -9 -17 -18 -27 -19 -167 -27 -181 -30 -203 -48 -15
-12 -67 -17 -159 -16 -76 1 -214 -19 -223 -33 -12 -17 -97 3 -126 29 -26 24
-43 31 -43 17 0 -8 -85 -10 -140 -4 -22 2 -23 3 -6 10 15 6 16 9 5 13 -8 3
-47 -4 -86 -15 -62 -16 -73 -22 -73 -41 -1 -21 -1 -21 -15 -2 -14 19 -15 19
-15 -6 0 -30 -32 -43 -64 -25 -21 11 -136 18 -168 10 -10 -2 -18 -11 -18 -19
0 -17 -17 -19 -23 -1 -3 8 -13 6 -35 -10 -17 -13 -37 -20 -45 -17 -8 3 -17 -2
-20 -10 -4 -9 -2 -16 3 -16 14 0 12 -16 -3 -32 -8 -7 -17 -24 -20 -38 -4 -14
-11 -32 -17 -40 -9 -13 -11 -13 -21 0 -7 10 -12 11 -15 4 -13 -31 -33 -42 -86
-48 -37 -4 -58 -2 -58 4 0 5 5 10 12 10 21 0 -6 18 -32 22 -17 2 -28 -3 -35
-17 -7 -13 -23 -21 -48 -23 l-37 -3 -1 -82 -2 -82 -10 83 c-5 45 -13 82 -17
82 -10 0 -24 -146 -15 -159 3 -6 -8 -17 -24 -26 -17 -8 -35 -24 -41 -35 -8
-16 -21 -20 -60 -20 l-50 0 0 -40 0 -40 -150 0 -150 0 0 40 c0 29 -4 40 -15
40 -24 0 -76 30 -70 40 3 5 1 11 -5 15 -5 3 -10 -1 -10 -9 0 -20 -77 -21 -215
-4 -82 10 -95 9 -109 -5 -9 -8 -16 -20 -16 -25 0 -6 -6 -13 -12 -15 -7 -3 -3
-6 10 -6 16 -1 22 -7 22 -25 0 -33 -13 -35 -79 -13 -43 15 -71 18 -121 13 -36
-4 -86 -6 -112 -6 -30 1 -48 -3 -48 -11 0 -13 -61 -4 -93 14 -15 9 -21 9 -24
0 -5 -15 -90 -18 -111 -4 -10 6 -10 11 4 21 9 8 20 25 25 38 9 22 13 24 50 18
28 -4 38 -3 34 4 -9 15 24 39 53 40 15 0 22 6 22 19 0 11 5 23 10 26 6 4 10
-11 10 -37 l0 -42 20 20 c19 18 20 26 11 65 -6 24 -11 59 -11 77 0 31 -1 32
-42 32 -29 0 -49 7 -65 22 -14 13 -23 17 -23 9 0 -8 -6 -11 -16 -7 -17 6 -53
-29 -54 -51 0 -7 -7 -14 -15 -14 -8 -1 -20 -2 -27 -3 -11 -1 -25 -21 -42 -61
-3 -6 -9 -3 -15 5 -7 9 -27 15 -53 15 -41 0 -43 1 -58 43 -12 36 -18 42 -42
42 -21 0 -28 5 -28 20 0 11 5 20 10 20 6 0 10 9 10 20 0 22 15 27 24 8 3 -9
11 -5 26 11 11 13 33 25 48 27 15 1 47 10 72 19 35 13 52 15 75 6 48 -17 115
-17 126 0 10 14 5 76 -6 87 -3 4 -10 0 -15 -8 -8 -12 -10 -10 -10 8 0 16 -6
22 -21 22 -11 0 -28 8 -37 17 -16 16 -17 15 -20 -10 -3 -21 -9 -27 -27 -27
-32 0 -56 10 -49 21 3 5 -2 6 -11 3 -9 -4 -23 3 -35 19 -11 14 -29 28 -39 32
-12 3 -18 15 -18 35 0 24 4 29 17 25 17 -5 60 35 73 68 9 23 27 22 27 -3 0
-11 -4 -20 -10 -20 -5 0 -10 -7 -10 -15 0 -8 5 -15 10 -15 6 0 10 7 10 15 0 8
7 15 15 15 20 0 20 73 0 94 -8 8 -15 25 -15 38 0 21 5 25 43 27 40 3 97 8 107
10 2 1 -7 9 -20 18 -14 9 -28 23 -33 29 -4 7 -14 11 -22 8 -17 -7 -21 -34 -5
-34 6 0 10 -4 10 -10 0 -5 -9 -10 -20 -10 -11 0 -20 4 -20 8 0 18 -55 33 -143
39 -57 4 -118 15 -162 31 -69 24 -142 36 -200 33 -94 -5 -109 -4 -113 7 -3 9
-41 12 -143 11 -100 0 -144 3 -155 12 -13 10 -17 10 -23 0 -13 -20 -44 -8 -48
18 -4 27 -23 55 -31 46 -3 -3 -14 2 -24 12 -13 11 -18 30 -18 63 0 36 -4 49
-17 55 -10 3 -19 1 -21 -4 -5 -15 -78 -14 -110 2 -15 8 -72 19 -127 26 -55 7
-108 18 -119 23 -22 12 -99 -7 -122 -29 -9 -10 -25 -12 -50 -7 -31 6 -35 10
-30 29 5 19 2 22 -19 17 -18 -3 -25 0 -25 12 0 8 -10 18 -22 20 -55 11 -98 14
-98 7 0 -5 -32 -11 -71 -13 -39 -3 -76 -11 -82 -17 -6 -6 -24 -11 -39 -11 -15
0 -28 -4 -28 -10 0 -5 9 -10 20 -10 11 0 20 -4 20 -10 0 -5 -4 -10 -10 -10
-24 0 -7 -18 23 -24 24 -5 29 -9 17 -16 -20 -12 -18 -13 90 -50 52 -18 102
-39 111 -46 8 -8 21 -14 27 -14 7 0 12 -4 12 -9 0 -18 -48 -39 -108 -46 -34
-4 -64 -10 -66 -14 -3 -4 -37 -8 -77 -9 -40 -1 -75 -6 -78 -11 -4 -5 -34 -3
-71 5 -36 7 -71 14 -77 14 -10 0 -13 -25 -13 -94 l0 -94 93 -6 c112 -7 140
-11 153 -18 14 -9 95 -30 129 -33 17 -2 88 -9 160 -15 72 -6 153 -18 182 -26
28 -8 91 -14 140 -14 59 0 95 -5 108 -14 25 -17 113 -36 165 -36 22 0 40 -5
40 -11 0 -5 4 -8 9 -5 10 6 21 -61 13 -81 -2 -7 -19 -13 -37 -13 -34 0 -49
-17 -39 -44 4 -10 -12 -14 -70 -18 -66 -4 -79 -8 -100 -31 -32 -34 -95 -38
-126 -7 -11 11 -20 16 -20 10 0 -6 -10 -5 -25 2 -14 6 -25 14 -25 18 0 4 -9
17 -20 30 -18 20 -24 22 -89 15 -49 -5 -76 -3 -92 6 -13 7 -37 15 -54 17 -16
2 -36 7 -45 12 -18 9 -120 25 -250 39 -52 6 -119 13 -148 16 l-52 6 0 -3356 0
-3355 5400 0 5400 0 0 2970 0 2970 -40 0 c-22 0 -40 -4 -40 -9 0 -21 -213 -31
-324 -14 l-39 5 54 18 c80 26 114 30 258 32 l131 1 0 156 0 157 -67 12 c-38 7
-95 14 -128 17 -88 8 -145 26 -145 46 0 9 -7 20 -16 23 -8 3 -12 10 -9 16 4 6
-7 13 -25 16 -34 7 -51 24 -24 24 27 0 13 7 -28 14 -30 5 -38 4 -38 -8 0 -35
-259 -49 -283 -15 -7 9 -18 14 -24 12 -7 -3 -13 2 -13 11 0 9 -7 16 -15 16
-13 0 -13 4 2 28 10 15 23 33 30 40 15 16 17 73 3 116 -5 17 -12 43 -15 57 -4
21 -10 26 -30 24 -29 -4 -31 1 -40 124 -3 46 -10 102 -15 125 -5 22 -14 73
-20 111 -23 159 -61 303 -100 390 -5 11 -19 44 -30 74 -12 30 -30 67 -41 82
-26 37 -24 51 14 106 78 112 113 224 104 334 -8 95 -19 104 -48 40 -13 -28
-27 -51 -30 -51 -3 0 -23 -14 -43 -32 -32 -27 -93 -57 -118 -58 -3 0 -9 30
-13 68 -10 105 -43 229 -86 320 -21 46 -39 87 -39 93 0 5 -3 9 -7 9 -5 0 -17
20 -28 45 -10 24 -25 47 -32 49 -7 3 -13 12 -13 20 0 8 -6 19 -14 23 -7 4 -29
31 -47 59 -19 28 -52 78 -74 110 -69 103 -87 111 -54 23 32 -85 37 -104 44
-176 3 -37 8 -89 11 -115 8 -63 -6 -62 -71 1 -99 96 -372 260 -479 287 -28 7
-34 -4 -13 -25 10 -11 6 -12 -23 -6 -42 8 -127 33 -155 45 -65 30 -243 79
-320 89 -111 15 -227 39 -280 58 -84 30 -135 57 -135 70 0 15 1 15 145 -23 82
-22 135 -30 124 -20 -2 2 -57 18 -121 35 -64 17 -129 38 -145 46 -44 23 -141
65 -151 65 -20 0 -62 28 -83 54 -25 32 -59 52 -59 35z m-43 -375 c-3 -3 -12
-4 -19 -1 -8 3 -5 6 6 6 11 1 17 -2 13 -5z m-37 -393 c0 -10 -123 -95 -153
-107 -28 -11 -19 10 23 51 47 46 130 82 130 56z m-1090 -215 c0 -2 -17 -13
-37 -23 -21 -11 -52 -27 -69 -37 -85 -45 -396 -84 -356 -44 14 14 120 37 170
38 24 0 53 5 65 12 20 11 59 20 145 35 17 3 32 9 32 14 0 5 11 9 25 9 14 0 25
-2 25 -4z m3476 -213 c-10 -10 -19 5 -10 18 6 11 8 11 12 0 2 -7 1 -15 -2 -18z
m-96 -414 c32 -61 21 -84 -13 -27 -28 49 -33 68 -17 68 5 0 19 -18 30 -41z
m-3300 -734 c0 -150 -14 -238 -50 -306 -21 -38 -102 -101 -193 -148 -41 -21
-53 -33 -55 -54 -2 -15 -7 -25 -12 -22 -5 3 -7 12 -3 20 6 17 -5 19 -27 5 -12
-7 -12 -12 4 -29 11 -12 15 -27 12 -39 -4 -11 1 -37 10 -58 29 -66 42 -97 59
-144 9 -25 39 -90 66 -145 26 -55 53 -125 59 -155 6 -30 15 -64 20 -75 18 -42
49 -141 52 -169 6 -60 -19 -32 -79 86 -64 126 -95 215 -107 303 -4 28 -18 66
-30 85 -42 65 -147 269 -166 322 -26 73 -18 84 72 92 135 14 216 82 297 249
40 82 40 82 47 242 9 199 23 163 24 -60z m-4396 -131 c18 -7 23 -64 6 -64 -5
0 -10 9 -10 20 0 11 -4 20 -10 20 -5 0 -10 7 -10 15 0 17 2 18 24 9z m7960
-39 c-4 -8 -8 -15 -10 -15 -2 0 -4 7 -4 15 0 8 4 15 10 15 5 0 7 -7 4 -15z
m-8547 -41 c18 -5 22 -12 19 -35 -2 -16 -9 -35 -15 -43 -35 -42 -280 -52 -264
-10 3 8 16 14 30 14 13 0 34 11 47 25 13 14 32 25 43 25 11 0 26 7 33 15 13
15 67 20 107 9z m2863 -44 c0 -5 -4 -10 -10 -10 -5 0 -10 5 -10 10 0 6 5 10
10 10 6 0 10 -4 10 -10z m5617 -192 c-3 -8 -6 -5 -6 6 -1 11 2 17 5 13 3 -3 4
-12 1 -19z m-7761 -278 c30 -12 33 -50 4 -57 -11 -3 -20 -9 -20 -14 0 -5 -11
-4 -24 0 -17 7 -27 5 -39 -7 -25 -24 -202 -22 -225 3 -15 15 -15 17 -1 12 8
-3 38 6 65 20 123 62 169 70 240 43z m457 -37 c-7 -2 -19 -2 -25 0 -7 3 -2 5
12 5 14 0 19 -2 13 -5z m282 -33 c4 -6 -7 -10 -27 -9 -31 1 -32 1 -8 9 14 4
26 8 27 9 1 1 5 -3 8 -9z m2924 -101 c19 11 41 -3 41 -25 0 -7 15 -16 33 -19
17 -4 38 -12 44 -17 7 -6 19 -8 28 -5 8 4 17 2 20 -3 4 -6 -5 -10 -19 -10 -14
0 -26 -4 -26 -9 0 -4 11 -6 25 -3 19 3 25 0 25 -13 0 -13 -6 -16 -25 -13 -16
4 -25 1 -25 -8 0 -12 -20 -17 -135 -31 -65 -8 -62 -8 -87 2 -14 5 -18 2 -18
-14 0 -15 -6 -21 -23 -21 -13 0 -28 5 -33 10 -8 8 -20 7 -40 -1 -34 -13 -75
-17 -249 -24 -71 -3 -160 -8 -196 -10 -65 -5 -67 -5 -73 20 -4 14 -11 25 -16
25 -6 0 -10 11 -10 24 0 16 12 34 38 53 42 33 115 59 120 43 5 -14 32 -12 33
3 0 8 3 7 6 -2 4 -9 12 2 23 30 l18 44 82 3 c64 2 85 -1 94 -12 7 -10 29 -15
61 -16 68 -1 200 16 222 28 15 9 20 6 31 -14 10 -19 16 -22 31 -15z m-2426
-314 c26 -25 37 -65 17 -65 -5 0 -10 5 -10 12 0 6 -11 1 -24 -11 -24 -22 -27
-23 -115 -11 -50 6 -105 9 -123 6 -27 -5 -23 -1 22 21 30 16 57 31 60 34 13
15 52 29 83 29 32 0 35 3 41 38 3 20 7 93 8 162 l2 125 5 -157 c6 -156 6 -158
34 -183z m657 255 c151 -10 150 -10 150 -26 0 -9 10 -10 38 -3 20 5 70 6 110
3 67 -6 72 -8 72 -30 0 -21 -5 -24 -40 -24 -38 0 -40 -2 -40 -30 0 -16 -4 -30
-10 -30 -5 0 -10 5 -10 11 0 5 -4 7 -10 4 -18 -11 -11 -35 10 -35 27 0 25 -7
-7 -40 -36 -36 -53 -57 -53 -67 0 -4 -11 -18 -24 -31 -22 -20 -35 -22 -119
-23 -52 -1 -101 2 -107 6 -7 4 -80 9 -164 10 -174 3 -223 10 -229 34 -3 11 -5
9 -6 -6 -1 -18 -7 -23 -30 -23 -17 0 -33 -4 -36 -10 -9 -14 -42 -12 -47 3 -2
6 -2 78 0 160 4 136 6 147 23 147 11 0 19 5 19 11 0 12 257 7 510 -11z m2080
-26 c0 -34 -17 -30 -22 5 -3 21 -1 28 9 24 7 -3 13 -16 13 -29z m-1310 -31 l0
-28 -120 0 c-66 0 -116 2 -110 3 5 2 10 12 10 22 0 22 22 26 143 28 l77 2 0
-27z m5555 21 c13 -5 14 -8 3 -15 -20 -13 -38 -11 -38 6 0 16 9 19 35 9z
m-5835 -14 c0 -5 -4 -10 -10 -10 -5 0 -10 5 -10 10 0 6 5 10 10 10 6 0 10 -4
10 -10z m440 -10 c0 -11 -5 -20 -11 -20 -5 0 -7 -5 -3 -12 6 -9 9 -9 12 0 8
26 22 10 22 -27 0 -44 -10 -51 -70 -51 -60 0 -70 7 -70 50 0 21 -6 41 -12 44
-28 11 26 36 79 36 46 0 53 -3 53 -20z m1103 13 c-13 -2 -33 -2 -45 0 -13 2
-3 4 22 4 25 0 35 -2 23 -4z m4176 -17 c-9 -9 -139 -14 -134 -5 4 5 36 9 72 9
37 0 64 -2 62 -4z m-5719 -36 c0 -14 7 -20 23 -20 12 0 39 -6 60 -14 l39 -13
-32 -7 c-18 -3 -45 -6 -61 -6 -16 0 -29 -4 -29 -9 0 -5 -9 -13 -20 -16 -11 -3
-20 -13 -20 -21 0 -10 -12 -14 -40 -14 -33 0 -40 3 -40 19 0 16 8 20 38 23 20
2 37 8 38 13 0 6 4 27 8 48 9 39 36 52 36 17z m-1065 -181 c-8 -12 -35 -12
-35 0 0 11 22 20 33 14 4 -2 5 -9 2 -14z m-745 -45 c0 -14 -12 -19 -23 -8 -9
9 4 35 14 28 5 -3 9 -12 9 -20z m-70 -4 c0 -5 -2 -10 -4 -10 -3 0 -8 5 -11 10
-3 6 -1 10 4 10 6 0 11 -4 11 -10z m3720 -80 c0 -5 -4 -10 -10 -10 -5 0 -10 5
-10 10 0 6 5 10 10 10 6 0 10 -4 10 -10z m-1550 -421 c69 -1 127 -4 130 -8 15
-21 119 -53 180 -56 38 -2 77 -6 87 -9 33 -10 96 -17 238 -26 77 -5 174 -14
215 -21 67 -10 83 -10 156 9 45 12 90 20 100 18 10 -2 102 -7 204 -11 196 -8
227 -14 211 -44 -16 -29 -6 -54 27 -71 38 -18 41 -30 7 -30 -14 0 -29 -8 -35
-21 -24 -43 -74 -77 -132 -89 -36 -7 -59 -17 -63 -28 -14 -34 -14 -85 0 -112
8 -15 17 -47 21 -71 4 -24 11 -49 16 -56 5 -7 9 -27 7 -45 -3 -54 0 -62 33
-81 25 -14 33 -15 39 -5 7 10 9 9 9 -4 0 -13 8 -18 28 -18 34 0 57 -14 48 -29
-4 -6 -4 -11 1 -11 16 0 30 -66 19 -86 -23 -39 -37 -43 -146 -37 -102 5 -106
4 -139 -21 -19 -14 -43 -26 -53 -26 -10 0 -18 -4 -18 -10 0 -5 -6 -10 -13 -10
-8 0 -24 -11 -37 -25 -13 -14 -29 -25 -37 -25 -29 0 -7 -61 32 -92 27 -21 35
-56 36 -169 1 -97 -5 -129 -28 -129 -12 0 -14 -7 -9 -32 10 -50 32 -76 84 -98
46 -20 49 -24 50 -60 1 -25 -3 -40 -13 -44 -18 -6 -20 -26 -3 -26 6 0 19 -7
29 -16 16 -15 16 -17 -11 -42 -34 -33 -86 -122 -71 -122 6 0 11 -4 11 -8 0
-12 -73 -42 -102 -42 -14 0 -31 -6 -37 -14 -7 -8 -30 -17 -52 -21 -21 -4 -39
-11 -39 -16 0 -12 22 -11 57 2 72 27 127 30 193 9 76 -24 130 -56 130 -77 0
-23 -32 -44 -47 -31 -9 7 -13 7 -13 0 0 -11 -54 -19 -161 -25 -31 -2 -62 -8
-69 -12 -8 -5 -51 -9 -96 -10 -72 -1 -87 -4 -121 -28 -22 -15 -46 -27 -55 -27
-9 0 -19 -4 -23 -10 -3 -5 -12 -7 -20 -4 -9 4 -21 -9 -35 -36 -13 -26 -33 -47
-55 -57 -21 -10 -35 -24 -35 -35 0 -51 -72 -138 -114 -138 -21 0 -21 3 13 69
16 31 43 86 60 124 17 37 47 85 66 106 38 42 42 51 22 51 -12 0 -69 -79 -117
-161 -8 -15 -30 -44 -48 -65 -54 -64 -184 -242 -225 -308 -35 -57 -38 -66 -36
-130 3 -82 16 -73 -156 -111 -66 -14 -147 -33 -180 -40 -33 -8 -107 -23 -165
-34 -329 -62 -395 -76 -398 -84 -4 -8 -60 -34 -105 -48 -16 -4 -92 -13 -170
-19 -78 -6 -203 -17 -279 -26 -128 -14 -313 -14 -349 1 -20 7 -45 78 -34 95 5
8 23 11 54 8 25 -3 57 -2 71 2 l25 6 -26 7 c-15 4 -39 23 -54 43 -27 35 -27
39 -21 122 l7 87 -31 17 c-18 10 -30 25 -30 38 0 11 -12 38 -26 60 -25 37 -28
39 -72 37 -61 -3 -87 11 -128 69 -38 53 -41 64 -19 64 9 0 18 12 21 29 5 23
16 33 55 50 50 20 61 37 34 47 -8 4 -12 10 -9 15 14 23 -20 40 -75 38 -83 -3
-132 37 -83 68 15 9 19 23 18 62 -1 28 3 52 7 54 14 4 -27 76 -43 77 -8 0 -26
14 -40 30 -15 19 -34 30 -50 30 -23 0 -67 19 -45 20 19 1 -20 20 -41 20 -12 0
-27 7 -35 16 -8 10 -21 13 -36 9 -22 -5 -23 -3 -23 52 0 75 8 103 26 96 9 -3
19 7 29 31 8 19 29 45 45 58 26 19 30 28 30 68 0 25 -4 50 -8 55 -17 20 -34
125 -23 139 8 10 7 17 -3 26 -9 6 -19 9 -25 6 -5 -3 -7 3 -4 14 11 41 -6 71
-52 91 -48 21 -61 34 -45 44 5 3 10 15 10 26 0 10 5 19 12 19 6 0 1 11 -11 24
-19 20 -36 25 -134 34 -134 12 -239 35 -288 62 -20 11 -45 20 -55 20 -11 0
-43 16 -72 35 -30 18 -62 32 -73 30 -10 -2 -19 2 -19 8 0 7 -9 23 -19 37 -16
20 -22 22 -34 11 -13 -10 -20 -10 -39 0 -13 7 -43 14 -68 16 -25 1 -73 8 -108
14 -34 6 -76 9 -92 5 -24 -4 -36 0 -60 24 -36 35 -42 96 -12 123 21 19 100 39
162 42 25 1 59 9 75 18 29 15 50 26 140 68 61 29 148 59 170 59 26 1 55 23 55
42 0 8 9 23 20 33 31 28 50 71 37 84 -6 6 -18 11 -26 11 -25 0 -106 34 -124
51 -8 9 -17 31 -19 50 -3 32 -6 34 -48 41 -142 24 -212 32 -275 30 -85 -2
-115 4 -115 23 0 12 17 15 88 15 48 0 139 6 202 14 153 20 227 26 335 31 181
7 321 16 369 24 27 5 108 9 180 8 106 0 151 5 236 25 63 16 139 26 190 27 106
2 170 10 170 23 0 5 4 7 9 4 5 -4 41 -2 80 4 110 16 205 19 665 25 236 3 432
8 435 11 3 3 35 3 71 0 36 -3 121 -6 190 -7z m2696 -132 c54 -70 60 -92 24
-92 -17 0 -32 12 -52 40 -26 37 -68 117 -68 129 0 19 56 -26 96 -77z m-1121
-27 c3 -5 1 -10 -4 -10 -6 0 -11 5 -11 10 0 6 2 10 4 10 3 0 8 -4 11 -10z
m1195 -120 c0 -5 -4 -10 -10 -10 -5 0 -10 5 -10 10 0 6 5 10 10 10 6 0 10 -4
10 -10z m-58 -22 c-7 -7 -30 -21 -52 -33 -21 -11 -90 -46 -152 -78 -62 -32
-117 -63 -122 -68 -6 -5 -17 -9 -25 -10 -15 -1 -43 -17 -138 -81 -45 -30 -120
-53 -201 -63 -43 -5 -53 -3 -59 11 -9 24 24 45 152 100 61 26 150 67 199 92
48 25 152 67 230 93 145 50 191 60 168 37z m-1112 -568 c0 -5 -2 -10 -4 -10
-3 0 -8 5 -11 10 -3 6 -1 10 4 10 6 0 11 -4 11 -10z m3301 -88 c62 -96 109
-185 109 -204 0 -7 -7 -4 -15 7 -8 11 -26 34 -40 50 -14 17 -45 55 -69 87 -23
31 -50 64 -59 73 -24 23 -33 65 -17 75 22 13 32 3 91 -88z m-1721 27 c0 -5
-17 -17 -37 -26 -21 -8 -51 -26 -68 -40 -44 -36 -129 -88 -215 -131 -51 -26
-91 -55 -130 -96 -113 -122 -135 -141 -138 -123 -5 27 79 143 170 237 103 105
131 128 188 153 66 29 230 48 230 26z m-1330 -11 c0 -7 -10 -25 -23 -39 -12
-15 -38 -45 -57 -69 -73 -88 -118 -116 -143 -91 -9 9 11 35 90 112 94 92 133
117 133 87z m608 -250 c-6 -18 -17 -40 -24 -49 -8 -8 -14 -20 -14 -25 0 -6
-18 -34 -40 -64 -48 -64 -55 -83 -40 -110 8 -15 8 -20 -2 -20 -16 0 -58 40
-58 56 0 17 65 111 110 159 21 22 43 50 49 63 18 34 31 27 19 -10z m-5002 7
c68 -12 106 -26 162 -58 68 -39 142 -104 142 -126 0 -29 -28 -18 -72 27 -62
63 -151 107 -261 128 -111 22 -189 14 -272 -25 -69 -32 -87 -22 -22 12 41 21
87 35 157 47 68 11 71 11 166 -5z m404 -164 c0 -10 -7 -21 -15 -25 -11 -4 -15
1 -15 19 0 16 6 25 15 25 8 0 15 -9 15 -19z m27 -83 c-3 -8 -6 -5 -6 6 -1 11
2 17 5 13 3 -3 4 -12 1 -19z m-137 -69 c0 -31 -4 -48 -10 -44 -5 3 -10 26 -10
51 0 24 5 44 10 44 6 0 10 -23 10 -51z m-7 -385 c-4 -10 -9 -12 -15 -6 -12 12
-1 35 12 27 5 -3 6 -13 3 -21z m4443 -76 c-25 -35 -66 -93 -91 -129 -25 -37
-52 -72 -60 -79 -8 -7 -15 -18 -15 -25 0 -7 -7 -19 -16 -26 -9 -7 -30 -37 -46
-66 -47 -84 -115 -154 -146 -151 -20 2 -25 -2 -27 -20 -2 -27 -20 -42 -50 -42
-11 0 -26 -4 -34 -9 -23 -15 71 -24 173 -18 50 3 84 3 76 0 -8 -2 -29 -11 -47
-19 -17 -8 -34 -14 -37 -14 -3 0 -30 -12 -61 -26 -47 -23 -63 -25 -108 -20
-28 4 -73 15 -99 24 -60 21 -74 54 -58 128 19 85 40 95 153 72 l59 -12 45 49
c24 28 61 68 81 90 20 21 56 64 79 94 63 81 266 286 271 273 2 -6 -17 -39 -42
-74z m-4432 -42 c8 -42 -10 -98 -24 -76 -18 27 -10 110 10 110 4 0 11 -15 14
-34z m4076 -21 c0 -8 -6 -15 -12 -15 -7 0 -25 -16 -41 -35 -30 -37 -76 -55
-144 -55 -32 0 -46 -5 -55 -20 -15 -23 -46 -27 -54 -6 -7 17 17 64 43 88 15
14 35 18 89 16 53 -1 79 3 109 19 49 26 65 27 65 8z m-4080 -145 c0 -16 -4
-30 -10 -30 -5 0 -10 3 -10 8 0 4 -3 17 -6 30 -5 16 -2 22 10 22 11 0 16 -9
16 -30z m-13 -82 c-3 -7 -5 -2 -5 12 0 14 2 19 5 13 2 -7 2 -19 0 -25z m2971
-145 c2 -20 -5 -39 -21 -59 -13 -16 -30 -39 -36 -52 -17 -33 -55 -26 -59 10
-2 19 3 31 17 40 12 7 21 18 21 25 0 7 4 13 10 13 5 0 17 14 25 31 20 37 39
33 43 -8z m-2794 -19 c4 -9 4 -19 1 -22 -3 -3 -5 0 -5 6 0 9 -5 9 -17 3 -25
-14 -173 -44 -180 -37 -9 9 18 36 51 51 46 20 142 19 150 -1z m138 -21 c27
-24 24 -53 -4 -46 -13 3 -30 11 -38 18 -8 7 -25 16 -38 20 -12 3 -20 11 -17
16 10 15 77 10 97 -8z m3078 -369 c0 -12 -28 -31 -95 -63 -143 -67 -200 -91
-218 -91 -9 0 -18 -4 -22 -9 -3 -5 -36 -19 -73 -31 -88 -29 -294 -127 -309
-148 -25 -32 -6 -204 27 -247 11 -14 60 -141 60 -155 0 -17 -97 92 -159 179
-59 81 -121 196 -121 222 0 16 106 69 225 114 33 13 92 35 130 50 39 15 99 36
135 47 36 11 115 37 177 59 61 21 116 39 122 39 6 0 19 4 29 9 39 20 92 34 92
25z m-986 -572 c-32 -48 -82 -116 -111 -152 -256 -311 -303 -362 -303 -328 0
21 31 66 121 177 46 57 110 138 142 180 72 96 201 234 205 221 2 -6 -22 -50
-54 -98z m-1499 -486 c94 -8 197 -17 230 -20 80 -8 607 -29 669 -27 77 2 81
-8 34 -97 -23 -42 -50 -87 -61 -99 -18 -21 -168 -98 -547 -281 -639 -309 -707
-343 -727 -364 -9 -10 -24 -18 -34 -18 -10 0 -22 -7 -27 -17 -9 -14 -10 -14
-16 5 -4 12 -13 19 -21 16 -21 -8 -34 26 -28 76 3 26 -2 71 -11 104 l-15 60
39 36 c31 29 40 44 40 71 0 19 7 43 15 53 17 22 11 36 -16 36 -15 0 -19 7 -19
34 0 19 5 38 10 41 13 8 13 45 -1 45 -6 0 -9 10 -7 23 3 27 -28 61 -77 81 -41
17 -63 60 -46 88 6 10 11 22 11 28 0 17 -35 11 -53 -10 -21 -24 -33 -25 -45
-3 -10 17 -64 20 -124 8 -14 -4 -29 -2 -32 4 -8 13 14 61 28 61 6 0 28 9 49
20 44 24 156 29 199 9 33 -14 62 3 53 32 -4 11 0 19 12 23 29 8 333 -2 518
-18z m-677 -863 c-4 -22 -53 -30 -73 -13 -22 19 -8 30 36 30 33 0 40 -3 37
-17z"/>
<path d="M4945 5770 c-3 -5 -1 -10 4 -10 6 0 11 5 11 10 0 6 -2 10 -4 10 -3 0
-8 -4 -11 -10z"/>
<path d="M2641 3884 c0 -11 3 -14 6 -6 3 7 2 16 -1 19 -3 4 -6 -2 -5 -13z"/>
<path d="M5760 3079 c0 -5 5 -7 10 -4 6 3 10 8 10 11 0 2 -4 4 -10 4 -5 0 -10
-5 -10 -11z"/>
<path d="M5698 3066 c-43 -13 -59 -26 -32 -26 10 1 35 9 54 20 39 21 33 23
-22 6z"/>
<path d="M5590 3020 c-13 -8 -13 -10 2 -10 9 0 20 5 23 10 8 13 -5 13 -25 0z"/>
<path d="M8125 8960 c11 -5 36 -9 55 -9 28 0 31 2 15 9 -11 5 -36 9 -55 9 -28
0 -31 -2 -15 -9z"/>
<path d="M8254 8931 c4 -6 19 -11 34 -11 15 0 40 -7 56 -15 34 -18 106 -21 89
-4 -22 22 -191 50 -179 30z"/>
<path d="M8550 8851 c0 -10 42 -23 49 -15 7 6 -20 24 -36 24 -7 0 -13 -4 -13
-9z"/>
<path d="M6915 8735 c-16 -7 -46 -18 -65 -23 l-35 -10 34 -1 c18 -1 50 3 70 9
20 5 49 12 64 15 15 3 25 10 22 15 -9 14 -54 11 -90 -5z"/>
<path d="M0 7355 c0 -47 0 -47 28 -40 15 5 38 8 51 9 13 1 27 8 29 16 3 8 9
18 15 21 10 7 -32 22 -90 34 l-33 7 0 -47z"/>
<path d="M2765 7202 c-16 -2 -43 -17 -60 -34 -16 -16 -40 -34 -53 -39 -19 -7
-21 -12 -12 -29 6 -12 19 -23 28 -26 9 -3 24 -9 34 -14 9 -5 30 -5 50 0 59 17
140 12 183 -12 32 -18 61 -23 146 -26 70 -3 114 0 129 8 17 9 25 9 39 -4 22
-20 56 -20 111 -1 50 17 100 20 100 4 0 -6 8 -8 18 -5 12 4 27 -3 42 -19 13
-14 34 -25 47 -25 14 0 21 -4 18 -10 -4 -6 17 -10 57 -9 35 0 57 3 51 6 -26
10 -12 23 25 22 40 0 93 -17 60 -18 -10 -1 -18 -5 -18 -11 0 -6 -33 -10 -80
-10 -44 0 -80 -4 -80 -9 0 -13 182 -19 198 -7 11 8 10 12 -5 18 -11 5 1 6 30
3 26 -2 47 -1 47 4 0 4 11 13 25 19 26 12 36 38 11 29 -16 -6 -26 13 -26 48 0
17 12 30 44 49 25 14 50 26 56 26 6 0 20 9 32 20 19 17 19 20 5 20 -9 0 -17 7
-17 16 0 8 -5 12 -11 9 -5 -4 -101 -9 -212 -12 -111 -2 -216 -8 -232 -12 -31
-8 -69 3 -94 27 -10 10 -30 12 -70 8 -57 -5 -444 -7 -536 -3 -27 2 -63 1 -80
-1z m428 -29 c-7 -2 -21 -2 -30 0 -10 3 -4 5 12 5 17 0 24 -2 18 -5z m327 -43
c0 -5 -4 -10 -10 -10 -5 0 -10 5 -10 10 0 6 5 10 10 10 6 0 10 -4 10 -10z"/>
<path d="M10632 6905 c-33 -15 -35 -15 -52 -15 -5 0 -10 -6 -10 -14 0 -8 -6
-14 -12 -13 -35 1 -58 -4 -58 -13 0 -5 9 -10 21 -10 11 0 17 -5 14 -10 -4 -6
-11 -8 -16 -4 -6 3 -19 -2 -29 -11 -13 -12 -27 -15 -54 -10 -29 6 -35 4 -31
-7 4 -9 -6 -18 -30 -27 -20 -7 -43 -24 -52 -37 -15 -23 -15 -28 0 -60 17 -35
32 -43 39 -22 3 8 14 4 34 -10 16 -11 56 -25 89 -31 33 -6 90 -15 127 -22 68
-11 148 -5 148 12 0 5 9 9 20 9 19 0 20 7 20 155 l0 155 -67 0 c-38 -1 -83 -7
-101 -15z"/>
<path d="M2561 6304 c0 -11 3 -14 6 -6 3 7 2 16 -1 19 -3 4 -6 -2 -5 -13z"/>
</g>
</svg>
